<svg width="420" height="140" viewBox="0 0 420 140" fill="none" xmlns="http://www.w3.org/2000/svg">
  <rect width="420" height="140" fill="transparent"/>
  <g transform="translate(26 18)">
    <path d="M58 5C28 9 7 33 7 62c0 30 22 54 53 57-18-12-29-32-29-57 0-24 10-45 27-57Z" fill="#E8D7BA"/>
    <path d="M94 5c30 9 50 31 50 58 0 28-20 49-49 57 17-14 26-34 26-58 0-23-10-43-27-57Z" fill="#E8D7BA"/>
    <path d="M73 18 51 31v49l22 27 22-27V31L73 18Z" fill="#C99A5B"/>
    <path d="M58 44h31M58 65h31" stroke="#071312" stroke-width="8" stroke-linecap="square"/>
    <path d="M73 91 58 73h30L73 91Z" fill="#071312"/>
  </g>
  <text x="196" y="58" text-anchor="middle" fill="#F7F0E6" font-family="Georgia, serif" font-size="34" letter-spacing="14">WAMIRA</text>
  <text x="196" y="88" text-anchor="middle" fill="#C99A5B" font-family="Georgia, serif" font-size="16" letter-spacing="13">GLOBAL</text>
  <path d="M112 80h45M235 80h45" stroke="#C99A5B" stroke-width="2"/>
  <text x="196" y="118" text-anchor="middle" fill="#F7F0E6" font-family="Brush Script MT, Segoe Script, cursive" font-size="20">The Legacy Standard</text>
</svg>
